<?xml version="1.0" encoding="utf-8"?>
<!-- Generator: Adobe Illustrator 25.4.0, SVG Export Plug-In . SVG Version: 6.00 Build 0)  -->
<svg version="1.1" id="Layer_1" xmlns="http://www.w3.org/2000/svg" xmlns:xlink="http://www.w3.org/1999/xlink" x="0px" y="0px"
	 viewBox="0 0 572.04 126.19" style="enable-background:new 0 0 572.04 126.19;" xml:space="preserve">
<style type="text/css">
	.st0{fill:#FFFFFF;}
</style>
<g>
	<path class="st0" d="M466.24,72.21c0,2.63,2.13,4.76,4.76,4.76c2.7,0,4.83-2.13,4.83-4.76c0-2.7-2.13-4.83-4.83-4.83
		C468.38,67.38,466.24,69.51,466.24,72.21 M474.67,86.35h-7.26v37.54h7.26V86.35z M309.22,6.92c0,2.63,2.13,4.76,4.76,4.76
		c2.7,0,4.83-2.13,4.83-4.76c0-2.7-2.13-4.83-4.83-4.83C311.35,2.09,309.22,4.22,309.22,6.92 M533.75,102.19
		c0-5.7,2.97-10.3,8.74-10.3c6.56,0,8.74,4.21,8.74,9.44v22.55h7.34v-23.8c0-8.35-4.45-14.83-13.42-14.83
		c-4.37,0-8.82,1.8-11.55,6.48v-5.38h-7.18v37.54h7.34V102.19z M501.12,118.5c-6.24,0-11.71-4.68-11.71-13.42
		c0-8.66,5.46-13.35,11.71-13.35c6.24,0,11.71,4.68,11.71,13.35C512.83,113.82,507.37,118.5,501.12,118.5 M501.12,85.18
		c-11.24,0-19.2,8.51-19.2,19.9c0,11.47,7.96,19.98,19.2,19.98c11.24,0,19.2-8.51,19.2-19.98
		C520.32,93.69,512.36,85.18,501.12,85.18 M451.65,74.49h-6.71v6.09c0,3.28-1.72,5.78-5.78,5.78h-2.03v6.63h7.18v20.6
		c0,6.79,4.06,10.69,10.46,10.69c2.5,0,4.37-0.47,4.99-0.7v-6.24c-0.62,0.16-1.95,0.31-2.89,0.31c-3.82,0-5.23-1.72-5.23-5.15V92.98
		h8.12v-6.63h-8.12V74.49z M414.34,118.89c-3.75,0-6.09-2.65-6.09-5.46c0-3.36,2.34-5.15,5.46-5.62l11.47-1.72v1.72
		C425.19,116.01,420.35,118.89,414.34,118.89 M400.76,113.82c0,5.93,4.92,11.24,12.56,11.24c6.71,0,10.46-3.59,12.1-6.24
		c0,2.73,0.23,4.14,0.39,5.07H433c-0.16-0.94-0.47-2.89-0.47-6.17V98.91c0-7.34-4.37-13.74-15.61-13.74
		c-8.12,0-14.6,4.99-15.38,12.17l7.02,1.64c0.47-4.37,3.36-7.57,8.51-7.57c5.7,0,8.12,3.04,8.12,6.71c0,1.33-0.62,2.5-2.89,2.81
		l-10.15,1.48C405.68,103.36,400.76,107.11,400.76,113.82 M398.58,86.35h-7.88l-10.77,28.95l-10.69-28.95h-8.27l15.22,37.54h7.41
		L398.58,86.35z M341.14,118.5c-6.24,0-11.71-4.68-11.71-13.42c0-8.66,5.46-13.35,11.71-13.35c6.24,0,11.71,4.68,11.71,13.35
		C352.85,113.82,347.38,118.5,341.14,118.5 M341.14,85.18c-11.24,0-19.2,8.51-19.2,19.9c0,11.47,7.96,19.98,19.2,19.98
		s19.2-8.51,19.2-19.98C360.34,93.69,352.38,85.18,341.14,85.18 M290.65,102.19c0-5.7,2.97-10.3,8.74-10.3
		c6.56,0,8.74,4.21,8.74,9.44v22.55h7.34v-23.8c0-8.35-4.45-14.83-13.42-14.83c-4.37,0-8.82,1.8-11.55,6.48v-5.38h-7.18v37.54h7.34
		V102.19z M249.68,102.19c0-5.7,2.97-10.3,8.74-10.3c6.56,0,8.74,4.21,8.74,9.44v22.55h7.34v-23.8c0-8.35-4.45-14.83-13.42-14.83
		c-4.37,0-8.82,1.8-11.55,6.48v-5.38h-7.18v37.54h7.34V102.19z M233.52,68.56h-7.8v55.33h7.8V68.56z M376.39,36.91
		c0-5.7,2.97-10.3,8.74-10.3c6.56,0,8.74,4.21,8.74,9.44V58.6h7.34V34.8c0-8.35-4.45-14.83-13.42-14.83
		c-4.37,0-8.82,1.79-11.55,6.48v-5.38h-7.18V58.6h7.34V36.91z M344.1,53.22c-6.24,0-11.71-4.68-11.71-13.42
		c0-8.66,5.46-13.35,11.71-13.35c6.24,0,11.71,4.68,11.71,13.35C355.81,48.54,350.35,53.22,344.1,53.22 M344.1,19.89
		c-11.24,0-19.2,8.51-19.2,19.9c0,11.47,7.96,19.98,19.2,19.98c11.24,0,19.2-8.51,19.2-19.98C363.3,28.4,355.34,19.89,344.1,19.89
		 M317.65,21.06h-7.26V58.6h7.26V21.06z M304.69,20.67c-0.39-0.08-1.41-0.23-2.42-0.23c-3.82,0-8.51,1.4-11.24,7.18v-6.56h-7.18
		V58.6h7.34V39.8c0-8.27,4.14-11.55,10.3-11.55c1.02,0,2.11,0.08,3.2,0.23V20.67z M230.01,30.9c0-14.44,9.68-21.77,19.98-21.77
		c10.3,0,19.98,7.34,19.98,21.77c0,14.44-9.68,21.85-19.98,21.85C239.69,52.75,230.01,45.34,230.01,30.9 M222.2,30.9
		c0,18.5,13.89,28.88,27.78,28.88c13.89,0,27.78-10.38,27.78-28.88c0-18.5-13.89-28.8-27.78-28.8C236.09,2.1,222.2,12.4,222.2,30.9"
		/>
</g>
<polygon class="st0" points="195.73,2.49 161.56,2.49 119.69,123.94 153.95,123.94 "/>
<path class="st0" d="M63.57,126.19c-34.72,0-62.87-28.15-62.87-62.87c0-34.73,28.15-62.88,62.87-62.88s62.87,28.15,62.87,62.88
	C126.44,98.04,98.29,126.19,63.57,126.19 M95.23,63.25c0-17.37-14.08-31.46-31.46-31.46S32.32,45.88,32.32,63.25
	S46.4,94.71,63.78,94.71S95.23,80.62,95.23,63.25"/>
<g>
	<path class="st0" d="M571.63,88.63c0,2.79-2.24,5-5.09,5s-5.12-2.21-5.12-5s2.27-4.97,5.15-4.97
		C569.39,83.66,571.63,85.85,571.63,88.63z M562.69,88.63c0,2.21,1.67,3.97,3.88,3.97c2.15,0.03,3.79-1.76,3.79-3.94
		c0-2.21-1.64-4-3.85-4C564.36,84.66,562.69,86.45,562.69,88.63z M565.75,91.21h-1.15v-4.97c0.45-0.06,1.09-0.15,1.91-0.15
		c0.94,0,1.36,0.15,1.7,0.39c0.3,0.21,0.52,0.58,0.52,1.06c0,0.61-0.46,1-1.03,1.18v0.06c0.48,0.15,0.73,0.54,0.88,1.21
		c0.15,0.76,0.27,1.03,0.36,1.21h-1.21c-0.15-0.18-0.24-0.61-0.39-1.21c-0.09-0.51-0.39-0.76-1.03-0.76h-0.54V91.21z M565.78,88.42
		h0.54c0.64,0,1.15-0.21,1.15-0.73c0-0.46-0.33-0.76-1.06-0.76c-0.3,0-0.51,0.03-0.64,0.06V88.42z"/>
</g>
</svg>
